# xmcd
#
# Track frame offsets:
#	150
#	12758
#	25183
#	38697
#	52262
#	63328
#	76270
#	88377
#	103087
#	115201
#	128167
#	141926
#	153723
#	181346
#	193944
#
# Disc length: 2742 seconds
#
# Revision: 0
# Processed by: cddbd v1.5.2PL0 Copyright (c) Steve Scherf et al.
# Submitted via: audiograbber 1.83.01
#
DISCID=d10ab40f
DTITLE=Various Artist - The Soul Story: Volume 4 - Disc 1
DYEAR=2006
DGENRE=Soul
TTITLE0=James Brown - I Got You (I Feel Good)
TTITLE1=Gladys Knight and the Pips - I Heard It Through the Grapevine
TTITLE2=Marvin Gaye - How Sweet It Is (To Be Loved by You)
TTITLE3=Etta James - At Last
TTITLE4=Smokey Robinson and the Miracles - Baby, Baby Don't Cry
TTITLE5=The Temptations - I Wish It Would Rain
TTITLE6=Aaron Neville - Tell It Like It Is
TTITLE7=Ramsey Lewis Trio - The "In" Crowd
TTITLE8=The Impressions - People Get Ready
TTITLE9=Jackie Wilson - (Your Love Keeps Lifting Me) Higher and Higher
TTITLE10=The Originals - The Bells
TTITLE11=Barrett Strong  - Money (That's What I Want)
TTITLE12=The Dells - Stay In My Corner
TTITLE13=The Miracles - Shop Around
TTITLE14=Hugh Masekela - Grazing In The Grass
EXTD=
EXTT0=
EXTT1=
EXTT2=
EXTT3=
EXTT4=
EXTT5=
EXTT6=
EXTT7=
EXTT8=
EXTT9=
EXTT10=
EXTT11=
EXTT12=
EXTT13=
EXTT14=
PLAYORDER=
